# xmcd
#
# Track frame offsets:
#	150
#	22765
#	45960
#	67592
#	86420
#	105572
#	126700
#	148428
#	165971
#	188614
#	212246
#	225667
#	248012
#	268030
#	283622
#	316288
#	338553
#
# Disc length: 4794 seconds
#
# Revision: 0
# Processed by: cddbd v1.4PL0 Copyright (c) Steve Scherf et al.
# Submitted via: EasyCDDAExtractor 4.6.9.1
#
DISCID=e212b811
DTITLE=Chris Ra - King Of The Beach
DYEAR=2001
DGENRE=
TTITLE0=King of the beach
TTITLE1=All summer long
TTITLE2=Sail away
TTITLE3=Still Beutifull
TTITLE4=The bones of angels
TTITLE5=Guitar street
TTITLE6=Who do you love
TTITLE7=The memory
TTITLE8=Sandwriting
TTITLE9=Tamatave
TTITLE10=God gave me an angel
TTITLE11=Waiting for blue sky
TTITLE12=Josephine (bonus)
TTITLE13=I just wonna B WU (bonus)
TTITLE14=Auberege (bonus)
TTITLE15=Looking 4 the summer (bonus)
TTITLE16=The blue cafe (bonus)
EXTD=
EXTT0=
EXTT1=
EXTT2=
EXTT3=
EXTT4=
EXTT5=
EXTT6=
EXTT7=
EXTT8=
EXTT9=
EXTT10=
EXTT11=
EXTT12=
EXTT13=
EXTT14=
EXTT15=
EXTT16=
PLAYORDER=
